<svg width="1186" height="696" viewBox="0 0 1186 696" fill="none" xmlns="http://www.w3.org/2000/svg">
<g clip-path="url(#clip0_370_133)">
<rect width="1186" height="696" rx="30" fill="black"/>
<path d="M170.423 495.705C156.026 470.675 123.76 464.002 101.103 481.368V481.368C69.306 505.74 78.6804 557.136 116.896 567.953L145.677 576.1C168.516 582.564 185.802 601.846 190.246 625.816L200.931 683.452C206.063 711.135 239.014 721.829 258.62 702.176V702.176C269.992 690.776 272.305 672.835 264.216 658.772L170.423 495.705Z" fill="white"/>
<path d="M43.9784 519.699C43.9783 488.085 11.6038 467.593 -15.7679 481.882V481.882C-37.4806 493.217 -44.9501 521.387 -31.8468 542.521L66.8643 701.733C77.1369 718.302 98.5011 723.153 114.583 712.57V712.57C135.478 698.818 135.929 667.538 115.441 653.152L73.6512 623.81C55.0866 610.775 43.9784 589.126 43.9784 565.98L43.9784 519.699Z" fill="white"/>
<path d="M340.28 515.432C341.671 540.422 308.718 584.333 284.463 585.766C260.208 587.2 282.917 569.953 281.525 544.963C280.347 523.809 259.73 494.302 279.041 479.143C287.646 472.389 299.599 471.12 309.877 474.596C326.656 480.271 339.209 496.206 340.28 515.432Z" fill="white"/>
<path d="M385.025 665.949C385.026 669.449 384.36 672.761 383.027 675.887C381.695 678.97 379.862 681.658 377.529 683.95C375.238 686.243 372.53 688.056 369.405 689.39C366.322 690.724 363.01 691.391 359.468 691.392C356.302 691.393 353.26 690.852 350.343 689.77C347.426 688.645 344.78 687.021 342.404 684.896C340.072 687.022 337.447 688.648 334.531 689.773C331.656 690.857 328.614 691.4 325.406 691.401C321.864 691.401 318.552 690.736 315.468 689.403C312.384 688.07 309.676 686.259 307.342 683.967C305.049 681.676 303.236 678.989 301.902 675.906C300.568 672.782 299.901 669.469 299.9 665.969L299.889 623.344L316.952 623.34L316.962 665.965C316.963 667.132 317.171 668.236 317.588 669.277C318.047 670.277 318.651 671.173 319.401 671.965C320.193 672.714 321.089 673.318 322.089 673.776C323.131 674.193 324.235 674.401 325.402 674.401C326.568 674.4 327.673 674.192 328.714 673.775C329.756 673.316 330.672 672.712 331.464 671.962C332.255 671.17 332.859 670.274 333.276 669.274C333.734 668.232 333.963 667.128 333.962 665.961L333.952 623.336L350.952 623.332L350.962 665.957C350.963 667.124 351.192 668.228 351.651 669.269C352.109 670.269 352.714 671.165 353.464 671.956C354.256 672.706 355.152 673.31 356.152 673.768C357.193 674.185 358.298 674.393 359.464 674.392C360.631 674.392 361.735 674.183 362.777 673.766C363.818 673.308 364.714 672.704 365.464 671.953C366.255 671.161 366.88 670.265 367.338 669.265C367.796 668.224 368.025 667.119 368.025 665.953L368.014 623.328L385.014 623.324L385.025 665.949ZM424.027 673.752C424.693 673.96 425.36 674.105 426.027 674.189C426.693 674.23 427.36 674.251 428.027 674.251C429.693 674.25 431.298 674.021 432.839 673.562C434.381 673.103 435.818 672.457 437.151 671.623C438.526 670.748 439.734 669.706 440.775 668.498C441.858 667.247 442.733 665.872 443.399 664.372L455.902 676.931C454.32 679.182 452.487 681.203 450.404 682.995C448.363 684.787 446.134 686.309 443.718 687.559C441.343 688.81 438.822 689.748 436.156 690.374C433.531 691.041 430.823 691.375 428.031 691.376C423.323 691.377 418.885 690.503 414.718 688.754C410.592 687.005 406.967 684.568 403.841 681.444C400.757 678.32 398.319 674.612 396.526 670.321C394.733 665.988 393.836 661.238 393.835 656.071C393.834 650.78 394.728 645.946 396.519 641.571C398.309 637.195 400.746 633.466 403.829 630.382C406.953 627.297 410.577 624.901 414.702 623.191C418.868 621.482 423.305 620.627 428.014 620.626C430.805 620.625 433.535 620.958 436.201 621.624C438.868 622.29 441.389 623.247 443.765 624.497C446.182 625.746 448.432 627.287 450.516 629.12C452.6 630.911 454.433 632.932 456.017 635.181L424.027 673.752ZM432.768 638.562C431.976 638.27 431.185 638.083 430.393 638C429.643 637.917 428.851 637.875 428.018 637.876C425.685 637.876 423.476 638.314 421.393 639.19C419.352 640.024 417.56 641.232 416.019 642.816C414.52 644.4 413.332 646.317 412.458 648.567C411.584 650.775 411.147 653.276 411.147 656.067C411.148 656.692 411.169 657.401 411.21 658.192C411.294 658.984 411.398 659.796 411.523 660.63C411.69 661.421 411.878 662.192 412.087 662.942C412.295 663.692 412.566 664.359 412.9 664.942L432.768 638.562ZM565.218 690.092L561.093 690.093L554.466 680.907C552.841 682.366 551.112 683.742 549.279 685.034C547.488 686.284 545.592 687.389 543.593 688.348C541.593 689.265 539.531 689.994 537.406 690.537C535.323 691.079 533.198 691.35 531.031 691.351C526.323 691.352 521.885 690.478 517.718 688.729C513.592 686.938 509.967 684.481 506.841 681.356C503.757 678.191 501.318 674.462 499.526 670.171C497.733 665.838 496.836 661.13 496.835 656.046C496.834 651.005 497.728 646.317 499.519 641.983C501.31 637.649 503.746 633.899 506.829 630.731C509.953 627.564 513.577 625.084 517.702 623.291C521.868 621.499 526.305 620.602 531.014 620.601C532.514 620.6 534.055 620.725 535.639 620.974C537.264 621.224 538.826 621.64 540.327 622.223C541.868 622.765 543.306 623.493 544.64 624.41C545.973 625.326 547.098 626.451 548.015 627.784L548.008 596.534L565.195 596.53L565.218 690.092ZM548.022 656.034C548.022 653.701 547.563 651.451 546.646 649.284C545.77 647.076 544.561 645.139 543.019 643.473C541.477 641.765 539.664 640.411 537.581 639.411C535.539 638.37 533.351 637.85 531.018 637.851C528.685 637.851 526.476 638.268 524.393 639.102C522.352 639.936 520.56 641.145 519.019 642.728C517.519 644.271 516.332 646.167 515.458 648.417C514.584 650.667 514.147 653.209 514.147 656.042C514.148 658.501 514.586 660.834 515.462 663.042C516.337 665.25 517.525 667.187 519.025 668.853C520.568 670.52 522.36 671.832 524.401 672.79C526.485 673.748 528.693 674.226 531.027 674.226C533.36 674.225 535.547 673.724 537.589 672.724C539.672 671.682 541.484 670.327 543.025 668.66C544.567 666.951 545.775 665.014 546.649 662.847C547.565 660.638 548.023 658.367 548.022 656.034ZM642.96 656.011C642.961 661.011 642.066 665.678 640.276 670.012C638.485 674.304 636.049 678.033 632.966 681.201C629.883 684.327 626.259 686.807 622.093 688.641C617.968 690.434 613.531 691.331 608.781 691.332C604.073 691.333 599.635 690.438 595.468 688.647C591.342 686.815 587.717 684.337 584.591 681.213C581.507 678.047 579.068 674.318 577.276 670.027C575.483 665.694 574.586 661.027 574.585 656.027C574.584 650.944 575.478 646.236 577.269 641.902C579.06 637.568 581.496 633.838 584.579 630.713C587.703 627.545 591.327 625.065 595.452 623.272C599.618 621.48 604.055 620.583 608.764 620.582C613.514 620.581 617.951 621.434 622.077 623.141C626.244 624.807 629.87 627.202 632.954 630.326C636.038 633.408 638.476 637.137 640.269 641.512C642.062 645.844 642.959 650.678 642.96 656.011ZM625.772 656.015C625.772 653.265 625.313 650.786 624.396 648.578C623.52 646.328 622.311 644.412 620.769 642.829C619.227 641.204 617.414 639.975 615.331 639.143C613.289 638.268 611.101 637.831 608.768 637.832C606.435 637.832 604.226 638.27 602.143 639.146C600.102 639.98 598.31 641.209 596.769 642.835C595.27 644.418 594.082 646.335 593.208 648.585C592.334 650.794 591.897 653.273 591.897 656.023C591.898 658.607 592.336 661.002 593.212 663.21C594.087 665.419 595.275 667.335 596.776 668.96C598.318 670.584 600.11 671.875 602.151 672.833C604.235 673.749 606.443 674.207 608.777 674.207C611.11 674.206 613.298 673.768 615.339 672.893C617.422 672.017 619.234 670.787 620.776 669.204C622.317 667.62 623.525 665.703 624.399 663.453C625.315 661.203 625.773 658.723 625.772 656.015ZM721.843 690.054C717.718 690.055 713.843 689.285 710.218 687.745C706.592 686.162 703.404 684.017 700.654 681.309C697.945 678.56 695.798 675.373 694.214 671.748C692.671 668.124 691.899 664.249 691.898 660.124L691.894 640.249L683.581 640.251L683.577 623.251L691.889 623.249L691.883 596.499L708.883 596.495L708.889 623.245L734.764 623.239L734.769 640.239L708.894 640.245L708.898 660.12C708.899 661.911 709.233 663.599 709.9 665.182C710.567 666.724 711.484 668.078 712.651 669.244C713.818 670.41 715.193 671.347 716.776 672.055C718.36 672.722 720.047 673.055 721.839 673.054L734.777 673.051L734.781 690.051L721.843 690.054ZM771.027 673.667C771.693 673.875 772.36 674.021 773.027 674.104C773.693 674.146 774.36 674.166 775.027 674.166C776.693 674.166 778.298 673.936 779.839 673.478C781.381 673.019 782.818 672.373 784.151 671.539C785.526 670.664 786.734 669.622 787.775 668.413C788.858 667.163 789.733 665.788 790.399 664.288L802.902 676.847C801.32 679.097 799.487 681.119 797.404 682.911C795.363 684.703 793.134 686.224 790.718 687.475C788.343 688.726 785.822 689.664 783.156 690.289C780.531 690.957 777.823 691.291 775.031 691.291C770.323 691.292 765.885 690.418 761.718 688.669C757.592 686.92 753.967 684.484 750.841 681.36C747.757 678.235 745.319 674.528 743.526 670.236C741.733 665.904 740.836 661.154 740.835 655.987C740.834 650.695 741.728 645.862 743.519 641.486C745.309 637.111 747.746 633.381 750.829 630.297C753.953 627.213 757.577 624.816 761.702 623.107C765.868 621.398 770.305 620.542 775.014 620.541C777.805 620.541 780.535 620.873 783.201 621.539C785.868 622.205 788.389 623.163 790.765 624.412C793.182 625.662 795.432 627.203 797.516 629.036C799.6 630.827 801.433 632.847 803.017 635.097L771.027 673.667ZM779.768 638.478C778.976 638.186 778.185 637.999 777.393 637.916C776.643 637.833 775.851 637.791 775.018 637.791C772.685 637.792 770.476 638.23 768.393 639.105C766.352 639.939 764.56 641.148 763.019 642.732C761.52 644.315 760.332 646.232 759.458 648.483C758.584 650.691 758.147 653.191 758.147 655.983C758.148 656.608 758.169 657.316 758.21 658.108C758.294 658.899 758.398 659.712 758.523 660.545C758.69 661.337 758.878 662.108 759.087 662.858C759.295 663.608 759.566 664.274 759.9 664.857L779.768 638.478ZM869.643 636.393L857.146 648.959C856.52 647.209 855.666 645.647 854.582 644.272C853.498 642.856 852.269 641.668 850.894 640.71C849.56 639.752 848.102 639.023 846.518 638.524C844.935 638.024 843.31 637.775 841.643 637.775C839.31 637.776 837.101 638.255 835.018 639.214C832.977 640.173 831.186 641.528 829.644 643.278C828.145 644.987 826.958 647.029 826.083 649.404C825.209 651.779 824.772 654.404 824.773 657.279C824.773 659.612 825.211 661.8 826.087 663.841C826.962 665.883 828.15 667.674 829.651 669.215C831.193 670.757 832.985 671.965 835.026 672.839C837.11 673.714 839.318 674.151 841.652 674.15C843.318 674.15 844.923 673.92 846.464 673.461C848.006 673.003 849.443 672.356 850.776 671.523C852.151 670.647 853.359 669.606 854.4 668.397C855.483 667.147 856.358 665.771 857.024 664.271L869.527 676.831C867.945 679.081 866.112 681.102 864.029 682.895C861.988 684.687 859.759 686.208 857.343 687.459C854.968 688.709 852.447 689.647 849.781 690.273C847.156 690.94 844.448 691.274 841.656 691.275C836.948 691.276 832.51 690.402 828.343 688.653C824.217 686.863 820.592 684.426 817.466 681.343C814.382 678.261 811.944 674.657 810.151 670.533C808.358 666.408 807.461 661.992 807.46 657.283C807.459 652.158 808.354 647.366 810.144 642.908C811.935 638.449 814.371 634.573 817.454 631.281C820.578 627.947 824.202 625.321 828.327 623.403C832.493 621.486 836.93 620.526 841.639 620.525C844.43 620.524 847.16 620.878 849.826 621.586C852.535 622.293 855.098 623.334 857.515 624.709C859.973 626.041 862.224 627.687 864.266 629.645C866.35 631.602 868.142 633.852 869.643 636.393ZM895.093 690.012L878.031 690.016L878.008 596.454L895.07 596.45L895.078 626.012C897.119 624.47 899.223 623.386 901.389 622.761C903.556 622.093 905.764 621.759 908.014 621.759C912.139 621.758 916.014 622.549 919.64 624.131C923.265 625.672 926.411 627.817 929.079 630.566C931.788 633.274 933.913 636.461 935.456 640.127C937.04 643.752 937.833 647.627 937.834 651.752L937.843 690.002L920.656 690.006L920.646 651.756L920.771 651.756C920.771 650.006 920.437 648.36 919.77 646.819C919.103 645.235 918.186 643.861 917.019 642.694C915.852 641.528 914.498 640.612 912.956 639.945C911.414 639.279 909.768 638.946 908.018 638.946C906.227 638.947 904.539 639.281 902.956 639.948C901.373 640.615 899.998 641.532 898.832 642.699C897.665 643.866 896.749 645.241 896.083 646.824C895.416 648.366 895.083 650.012 895.084 651.762L895.093 690.012Z" fill="white"/>
</g>
<defs>
<clipPath id="clip0_370_133">
<rect width="1186" height="696" rx="30" fill="white"/>
</clipPath>
</defs>
</svg>
