<svg width="1186" height="126" viewBox="0 0 1186 126" fill="none" xmlns="http://www.w3.org/2000/svg">
<path d="M552.716 121.788C553.391 118.921 551.619 116.03 548.757 115.331C545.896 114.632 543.029 116.389 542.354 119.256C541.679 122.123 543.451 125.014 546.313 125.714C549.174 126.413 552.041 124.655 552.716 121.788ZM549.72 120.027L547.764 119.549L547.306 121.496L549.261 121.973L549.72 120.027Z" fill="white"/>
<path d="M738.642 5.50782C738.645 2.56231 736.259 0.171972 733.314 0.168863C730.368 0.165755 727.978 2.55105 727.975 5.49656C727.972 8.44208 730.357 10.8324 733.303 10.8355C736.248 10.8386 738.639 8.45334 738.642 5.50782ZM1186 4.97998L733.309 4.50219L733.307 6.50219L1186 6.97998L1186 4.97998Z" fill="white"/>
<path d="M733.306 1L547.732 120.522H0" stroke="white" stroke-width="2"/>
</svg>
