<svg width="214" height="48" viewBox="0 0 214 48" fill="none" xmlns="http://www.w3.org/2000/svg">
<path d="M73.9531 35.7656H65.6094C65.6198 36.7344 65.8125 37.5885 66.1875 38.3281C66.5729 39.0677 67.0781 39.625 67.7031 40C68.3385 40.375 69.0365 40.5625 69.7969 40.5625C70.3073 40.5625 70.7708 40.5052 71.1875 40.3906C71.6146 40.2656 72.026 40.0781 72.4219 39.8281C72.8177 39.5677 73.1823 39.2917 73.5156 39C73.849 38.7083 74.2812 38.3125 74.8125 37.8125C75.0312 37.625 75.3438 37.5312 75.75 37.5312C76.1875 37.5312 76.5417 37.651 76.8125 37.8906C77.0833 38.1302 77.2188 38.4688 77.2188 38.9062C77.2188 39.2917 77.0677 39.7448 76.7656 40.2656C76.4635 40.776 76.0052 41.2708 75.3906 41.75C74.7865 42.2188 74.0208 42.6094 73.0938 42.9219C72.1771 43.2344 71.1198 43.3906 69.9219 43.3906C67.1823 43.3906 65.0521 42.6094 63.5312 41.0469C62.0104 39.4844 61.25 37.3646 61.25 34.6875C61.25 33.4271 61.4375 32.2604 61.8125 31.1875C62.1875 30.1042 62.7344 29.1771 63.4531 28.4062C64.1719 27.6354 65.0573 27.0469 66.1094 26.6406C67.1615 26.224 68.3281 26.0156 69.6094 26.0156C71.276 26.0156 72.7031 26.3698 73.8906 27.0781C75.0885 27.776 75.9844 28.6823 76.5781 29.7969C77.1719 30.9115 77.4688 32.0469 77.4688 33.2031C77.4688 34.276 77.1615 34.974 76.5469 35.2969C75.9323 35.6094 75.0677 35.7656 73.9531 35.7656ZM65.6094 33.3438H73.3438C73.2396 31.8854 72.8438 30.7969 72.1562 30.0781C71.4792 29.349 70.5833 28.9844 69.4688 28.9844C68.4062 28.9844 67.5312 29.3542 66.8438 30.0938C66.1667 30.8229 65.7552 31.9062 65.6094 33.3438ZM100.766 40.9531V40.5312C100.193 41.1875 99.625 41.724 99.0625 42.1406C98.5104 42.5469 97.9062 42.8542 97.25 43.0625C96.6042 43.2812 95.8958 43.3906 95.125 43.3906C94.1042 43.3906 93.1562 43.1771 92.2812 42.75C91.4167 42.3125 90.6667 41.6927 90.0312 40.8906C89.3958 40.0885 88.9115 39.1458 88.5781 38.0625C88.2552 36.9792 88.0938 35.8073 88.0938 34.5469C88.0938 31.8802 88.7448 29.8021 90.0469 28.3125C91.349 26.8229 93.0625 26.0781 95.1875 26.0781C96.4167 26.0781 97.4531 26.2917 98.2969 26.7188C99.1406 27.1354 99.9635 27.7812 100.766 28.6562V22.3594C100.766 21.4844 100.938 20.8229 101.281 20.375C101.635 19.9271 102.135 19.7031 102.781 19.7031C103.427 19.7031 103.922 19.9115 104.266 20.3281C104.62 20.7344 104.797 21.3385 104.797 22.1406V40.9531C104.797 41.7656 104.609 42.375 104.234 42.7812C103.859 43.1875 103.375 43.3906 102.781 43.3906C102.198 43.3906 101.714 43.1823 101.328 42.7656C100.953 42.3385 100.766 41.7344 100.766 40.9531ZM92.375 34.6875C92.375 35.8438 92.5521 36.8281 92.9062 37.6406C93.2708 38.4531 93.7656 39.0677 94.3906 39.4844C95.0156 39.8906 95.6979 40.0938 96.4375 40.0938C97.1875 40.0938 97.8698 39.901 98.4844 39.5156C99.1094 39.1198 99.6042 38.5208 99.9688 37.7188C100.344 36.9062 100.531 35.8958 100.531 34.6875C100.531 33.5521 100.344 32.5781 99.9688 31.7656C99.6042 30.9427 99.1042 30.3177 98.4688 29.8906C97.8438 29.4531 97.1562 29.2344 96.4062 29.2344C95.625 29.2344 94.9271 29.4583 94.3125 29.9062C93.6979 30.3438 93.2188 30.9792 92.875 31.8125C92.5417 32.6354 92.375 33.5938 92.375 34.6875ZM125.047 34.7188C125.047 35.9896 124.849 37.1615 124.453 38.2344C124.057 39.3073 123.484 40.2292 122.734 41C121.984 41.7708 121.089 42.3646 120.047 42.7812C119.005 43.1875 117.833 43.3906 116.531 43.3906C115.24 43.3906 114.078 43.1823 113.047 42.7656C112.016 42.349 111.12 41.7552 110.359 40.9844C109.609 40.2031 109.036 39.2865 108.641 38.2344C108.255 37.1719 108.062 36 108.062 34.7188C108.062 33.4271 108.26 32.2448 108.656 31.1719C109.052 30.099 109.62 29.1823 110.359 28.4219C111.099 27.6615 111.995 27.0781 113.047 26.6719C114.099 26.2552 115.26 26.0469 116.531 26.0469C117.823 26.0469 118.995 26.2552 120.047 26.6719C121.099 27.0885 122 27.6823 122.75 28.4531C123.5 29.224 124.068 30.1406 124.453 31.2031C124.849 32.2656 125.047 33.4375 125.047 34.7188ZM120.766 34.7188C120.766 32.9792 120.38 31.625 119.609 30.6562C118.849 29.6875 117.823 29.2031 116.531 29.2031C115.698 29.2031 114.964 29.4219 114.328 29.8594C113.693 30.2865 113.203 30.9219 112.859 31.7656C112.516 32.6094 112.344 33.5938 112.344 34.7188C112.344 35.8333 112.51 36.8073 112.844 37.6406C113.188 38.474 113.672 39.1146 114.297 39.5625C114.932 40 115.677 40.2188 116.531 40.2188C117.823 40.2188 118.849 39.7344 119.609 38.7656C120.38 37.7865 120.766 36.4375 120.766 34.7188ZM136.656 26.4219H137.125V23.8594C137.125 23.1719 137.141 22.6354 137.172 22.25C137.214 21.8542 137.318 21.5156 137.484 21.2344C137.651 20.9427 137.891 20.7083 138.203 20.5312C138.516 20.3438 138.865 20.25 139.25 20.25C139.792 20.25 140.281 20.4531 140.719 20.8594C141.01 21.1302 141.193 21.4635 141.266 21.8594C141.349 22.2448 141.391 22.7969 141.391 23.5156V26.4219H142.953C143.557 26.4219 144.016 26.5677 144.328 26.8594C144.651 27.1406 144.812 27.5052 144.812 27.9531C144.812 28.526 144.583 28.9271 144.125 29.1562C143.677 29.3854 143.031 29.5 142.188 29.5H141.391V37.3438C141.391 38.0104 141.411 38.526 141.453 38.8906C141.505 39.2448 141.63 39.5365 141.828 39.7656C142.036 39.9844 142.37 40.0938 142.828 40.0938C143.078 40.0938 143.417 40.0521 143.844 39.9688C144.271 39.875 144.604 39.8281 144.844 39.8281C145.188 39.8281 145.495 39.9688 145.766 40.25C146.047 40.5208 146.188 40.8594 146.188 41.2656C146.188 41.9531 145.812 42.4792 145.062 42.8438C144.312 43.2083 143.234 43.3906 141.828 43.3906C140.495 43.3906 139.484 43.1667 138.797 42.7188C138.109 42.2708 137.656 41.651 137.438 40.8594C137.229 40.0677 137.125 39.0104 137.125 37.6875V29.5H136.562C135.948 29.5 135.479 29.3542 135.156 29.0625C134.833 28.7708 134.672 28.401 134.672 27.9531C134.672 27.5052 134.839 27.1406 135.172 26.8594C135.516 26.5677 136.01 26.4219 136.656 26.4219ZM159.672 35.7656H151.328C151.339 36.7344 151.531 37.5885 151.906 38.3281C152.292 39.0677 152.797 39.625 153.422 40C154.057 40.375 154.755 40.5625 155.516 40.5625C156.026 40.5625 156.49 40.5052 156.906 40.3906C157.333 40.2656 157.745 40.0781 158.141 39.8281C158.536 39.5677 158.901 39.2917 159.234 39C159.568 38.7083 160 38.3125 160.531 37.8125C160.75 37.625 161.062 37.5312 161.469 37.5312C161.906 37.5312 162.26 37.651 162.531 37.8906C162.802 38.1302 162.938 38.4688 162.938 38.9062C162.938 39.2917 162.786 39.7448 162.484 40.2656C162.182 40.776 161.724 41.2708 161.109 41.75C160.505 42.2188 159.74 42.6094 158.812 42.9219C157.896 43.2344 156.839 43.3906 155.641 43.3906C152.901 43.3906 150.771 42.6094 149.25 41.0469C147.729 39.4844 146.969 37.3646 146.969 34.6875C146.969 33.4271 147.156 32.2604 147.531 31.1875C147.906 30.1042 148.453 29.1771 149.172 28.4062C149.891 27.6354 150.776 27.0469 151.828 26.6406C152.88 26.224 154.047 26.0156 155.328 26.0156C156.995 26.0156 158.422 26.3698 159.609 27.0781C160.807 27.776 161.703 28.6823 162.297 29.7969C162.891 30.9115 163.188 32.0469 163.188 33.2031C163.188 34.276 162.88 34.974 162.266 35.2969C161.651 35.6094 160.786 35.7656 159.672 35.7656ZM151.328 33.3438H159.062C158.958 31.8854 158.562 30.7969 157.875 30.0781C157.198 29.349 156.302 28.9844 155.188 28.9844C154.125 28.9844 153.25 29.3542 152.562 30.0938C151.885 30.8229 151.474 31.9062 151.328 33.3438ZM182.094 38.1094C182.094 38.6406 181.932 39.2083 181.609 39.8125C181.297 40.4167 180.812 40.9948 180.156 41.5469C179.51 42.0885 178.693 42.526 177.703 42.8594C176.714 43.1927 175.599 43.3594 174.359 43.3594C171.724 43.3594 169.667 42.5938 168.188 41.0625C166.708 39.5208 165.969 37.4583 165.969 34.875C165.969 33.125 166.307 31.5781 166.984 30.2344C167.661 28.8906 168.641 27.8542 169.922 27.125C171.203 26.3854 172.734 26.0156 174.516 26.0156C175.62 26.0156 176.63 26.1771 177.547 26.5C178.474 26.8229 179.255 27.2396 179.891 27.75C180.536 28.2604 181.026 28.8073 181.359 29.3906C181.703 29.9635 181.875 30.5 181.875 31C181.875 31.5104 181.682 31.9427 181.297 32.2969C180.922 32.651 180.464 32.8281 179.922 32.8281C179.568 32.8281 179.271 32.7396 179.031 32.5625C178.802 32.375 178.542 32.0781 178.25 31.6719C177.729 30.8802 177.182 30.2865 176.609 29.8906C176.047 29.4948 175.328 29.2969 174.453 29.2969C173.193 29.2969 172.177 29.7917 171.406 30.7812C170.635 31.7604 170.25 33.1042 170.25 34.8125C170.25 35.6146 170.349 36.3542 170.547 37.0312C170.745 37.6979 171.031 38.2708 171.406 38.75C171.781 39.2188 172.234 39.5781 172.766 39.8281C173.297 40.0677 173.88 40.1875 174.516 40.1875C175.37 40.1875 176.099 39.9896 176.703 39.5938C177.318 39.1979 177.859 38.5938 178.328 37.7812C178.589 37.3021 178.87 36.9271 179.172 36.6562C179.474 36.3854 179.844 36.25 180.281 36.25C180.802 36.25 181.234 36.4479 181.578 36.8438C181.922 37.2396 182.094 37.6615 182.094 38.1094ZM189.188 22.2969V28.625C189.729 28 190.255 27.5052 190.766 27.1406C191.286 26.776 191.859 26.5052 192.484 26.3281C193.109 26.1406 193.781 26.0469 194.5 26.0469C195.583 26.0469 196.542 26.276 197.375 26.7344C198.219 27.1927 198.88 27.8594 199.359 28.7344C199.661 29.2448 199.865 29.8177 199.969 30.4531C200.073 31.0781 200.125 31.8021 200.125 32.625V40.7969C200.125 41.651 199.927 42.2969 199.531 42.7344C199.146 43.1719 198.63 43.3906 197.984 43.3906C196.578 43.3906 195.875 42.526 195.875 40.7969V33.5938C195.875 32.2292 195.672 31.1823 195.266 30.4531C194.859 29.7135 194.089 29.3438 192.953 29.3438C192.193 29.3438 191.505 29.5625 190.891 30C190.286 30.4271 189.833 31.0156 189.531 31.7656C189.302 32.401 189.188 33.5312 189.188 35.1562V40.7969C189.188 41.6406 188.995 42.2865 188.609 42.7344C188.234 43.1719 187.708 43.3906 187.031 43.3906C185.625 43.3906 184.922 42.526 184.922 40.7969V22.2969C184.922 21.4323 185.104 20.7865 185.469 20.3594C185.844 19.9219 186.365 19.7031 187.031 19.7031C187.708 19.7031 188.234 19.9219 188.609 20.3594C188.995 20.7969 189.188 21.4427 189.188 22.2969Z" fill="white"/>
<path d="M37.2158 7.2177C34.8285 2.98739 29.4778 1.85949 25.7206 4.79458V4.79458C20.4478 8.91377 22.0023 17.6005 28.3395 19.4287L33.1123 20.8056C36.8998 21.8982 39.7662 25.1571 40.5031 29.2084L42.2751 38.9496C43.1261 43.6284 48.5904 45.4359 51.8416 42.1142V42.1142C53.7273 40.1875 54.1109 37.1552 52.7696 34.7783L37.2158 7.2177Z" fill="white"/>
<path d="M16.2476 11.2733C16.2476 5.93007 10.879 2.46664 6.33996 4.8817V4.8817C2.73937 6.79745 1.50071 11.5586 3.67361 15.1306L20.0428 42.0396C21.7463 44.8399 25.2891 45.6599 27.9559 43.8711V43.8711C31.4209 41.5469 31.4958 36.2602 28.0982 33.8288L21.1683 28.8696C18.0897 26.6665 16.2477 23.0075 16.2476 19.0954L16.2476 11.2733Z" fill="white"/>
<path d="M65.3831 10.5521C65.6138 14.7757 60.1493 22.1973 56.1271 22.4396C52.1049 22.6819 55.8707 19.7668 55.6399 15.5432C55.4446 11.968 52.0256 6.98088 55.2279 4.41881C56.6548 3.27717 58.6371 3.0628 60.3415 3.65033C63.1239 4.60947 65.2055 7.30263 65.3831 10.5521Z" fill="white"/>
</svg>
