<svg width="682" height="472" viewBox="0 0 682 472" fill="none" xmlns="http://www.w3.org/2000/svg">
<path d="M384.283 70.974C359.632 29.376 304.382 18.285 265.586 47.1467C211.14 87.652 227.192 173.072 292.628 191.049L341.911 204.588C381.02 215.332 410.618 247.378 418.227 287.216L436.524 383.005C445.312 429.012 501.735 446.787 535.306 414.123C554.778 395.177 558.739 365.359 544.888 341.987L384.283 70.974Z" fill="black"/>
<path d="M167.77 110.852C167.77 58.3102 112.335 24.2531 65.4655 48.0012C28.2865 66.8394 15.4963 113.658 37.9333 148.782L206.958 413.387C224.548 440.924 261.131 448.987 288.667 431.397C324.446 408.542 325.22 356.557 290.136 332.648L218.58 283.882C186.791 262.218 167.77 226.238 167.77 187.769L167.77 110.852Z" fill="black"/>
<path d="M675.13 103.761C677.513 145.293 621.087 218.272 579.555 220.655C538.023 223.037 576.907 194.372 574.524 152.84C572.507 117.684 537.204 68.6437 570.27 43.45C585.004 32.2239 605.473 30.1159 623.072 35.8933C651.803 45.3249 673.297 71.8076 675.13 103.761Z" fill="black"/>
</svg>
