<svg width="27" height="20" viewBox="0 0 27 20" fill="none" xmlns="http://www.w3.org/2000/svg">
<path d="M15.2246 3.00737C14.248 1.24475 12.0591 0.774788 10.5221 1.99774V1.99774C8.36498 3.71407 9.00093 7.33355 11.5934 8.09529L13.5459 8.66898C15.0953 9.12425 16.268 10.4821 16.5694 12.1702L17.2943 16.229C17.6425 18.1785 19.8779 18.9316 21.2079 17.5476V17.5476C21.9793 16.7448 22.1363 15.4813 21.5875 14.491L15.2246 3.00737Z" fill="white"/>
<path d="M6.64688 4.69715C6.64688 2.47079 4.45062 1.02769 2.59374 2.03397V2.03397C1.12077 2.83219 0.614049 4.81601 1.50296 6.30434L8.19944 17.5164C8.89633 18.6832 10.3457 19.0249 11.4366 18.2796V18.2796C12.8541 17.3111 12.8848 15.1084 11.4948 14.0953L8.65986 12.0289C7.40046 11.1109 6.64689 9.58636 6.64689 7.95634L6.64688 4.69715Z" fill="white"/>
<path d="M26.7476 4.39663C26.842 6.15648 24.6065 9.2488 22.9611 9.34976C21.3156 9.45073 22.8562 8.23611 22.7618 6.47626C22.6819 4.98659 21.2832 2.90863 22.5932 1.8411C23.177 1.36541 23.9879 1.27609 24.6851 1.5209C25.8234 1.92054 26.675 3.04269 26.7476 4.39663Z" fill="white"/>
</svg>
