<svg width="61" height="65" viewBox="0 0 61 65" fill="none" xmlns="http://www.w3.org/2000/svg">
<path d="M29.0382 16.2593C29.5998 15.2504 31.0425 15.2279 31.6356 16.2185L47.7078 43.0719C48.3007 44.0626 47.5988 45.3237 46.4444 45.3421L15.1524 45.8336C13.9978 45.8517 13.2568 44.6132 13.8184 43.6043L29.0382 16.2593Z" fill="black" stroke="black"/>
<path d="M45.0391 23.3198C46.1913 23.2457 46.9914 24.4465 46.4796 25.4814L32.7786 53.1815C32.2666 54.2164 30.8264 54.3091 30.186 53.3484L13.048 27.6325C12.4077 26.6717 13.0477 25.3781 14.2001 25.304L45.0391 23.3198Z" fill="black" stroke="black"/>
<path d="M49.1428 32.9315C50.1672 33.4641 50.2307 34.9056 49.2574 35.5266L23.2024 52.1443C22.2289 52.7652 20.9484 52.0994 20.8973 50.946L19.534 20.0728C19.4831 18.9192 20.7 18.1433 21.7245 18.676L49.1428 32.9315Z" fill="black" stroke="black"/>
<path d="M40.9377 50.0335C40.9536 51.188 39.714 51.9266 38.7062 51.3633L11.732 36.2834C10.7242 35.72 10.7042 34.2769 11.6959 33.6857L38.2429 17.8658C39.2349 17.2747 40.4945 17.9791 40.5105 19.1337L40.9377 50.0335Z" fill="black" stroke="black"/>
<ellipse cx="23.5" cy="35.5" rx="3.5" ry="5.5" fill="white"/>
<ellipse cx="37.5" cy="35.5" rx="3.5" ry="5.5" fill="white"/>
<ellipse cx="26" cy="35.5" rx="1" ry="1.5" fill="#232323"/>
<ellipse cx="40" cy="35.5" rx="1" ry="1.5" fill="#232323"/>
<path d="M30 17C30 7.51931 36.7879 -3.54166 44 5.14904" stroke="black"/>
<g filter="url(#filter0_f_1793_1813)">
<ellipse cx="42.5" cy="5" rx="2.5" ry="3" fill="#7F85FF"/>
<path d="M42.5 2.5C43.5231 2.5 44.5 3.53006 44.5 5C44.5 6.46994 43.5231 7.5 42.5 7.5C41.4769 7.5 40.5 6.46994 40.5 5C40.5 3.53006 41.4769 2.5 42.5 2.5Z" stroke="#7F85FF"/>
</g>
<defs>
<filter id="filter0_f_1793_1813" x="38" y="0" width="9" height="10" filterUnits="userSpaceOnUse" color-interpolation-filters="sRGB">
<feFlood flood-opacity="0" result="BackgroundImageFix"/>
<feBlend mode="normal" in="SourceGraphic" in2="BackgroundImageFix" result="shape"/>
<feGaussianBlur stdDeviation="1" result="effect1_foregroundBlur_1793_1813"/>
</filter>
</defs>
</svg>
